# xmcd
#
# Track frame offsets: 
#        150
#        13725
#        31135
#        48335
#        63687
#        82600
#        104510
#        122715
#        140207
#        159860
#
# Disc length: 2411 seconds
#
# Revision: 3
# Processed by: cddbd v1.5.2PL0 Copyright (c) Steve Scherf et al.
# Submitted via: ExactAudioCopy v1.1
#
DISCID=7d09690a
DTITLE=The Chimes - The Chimes
DYEAR=1990
DGENRE=Blues
TTITLE0=Love So Tender
TTITLE1=Heaven
TTITLE2=True Love
TTITLE3=1-2-3
TTITLE4=Underestimate
TTITLE5=Love Comes To Mind
TTITLE6=Don't Make Me Wait
TTITLE7=Stronger Together
TTITLE8=I Still Haven't Found What I'm Looking For
TTITLE9=Stay
EXTD=
EXTT0=
EXTT1=
EXTT2=
EXTT3=
EXTT4=
EXTT5=
EXTT6=
EXTT7=
EXTT8=
EXTT9=
PLAYORDER=
